
        <svg xmlns="http://www.w3.org/2000/svg" xmlns:xlink="http://www.w3.org/1999/xlink" version="1.1" width="3143.884892086331"
        height="848.9208633093524" viewBox="0 0 3143.884892086331 848.9208633093524">

			<g transform="scale(7.194244604316546) translate(10, 10)">
				<defs id="SvgjsDefs2278"></defs><g id="SvgjsG2279" featureKey="symbolFeature-0" transform="matrix(1,0,0,1,-21.679107666015625,-1)" fill="#8d8a86"><g xmlns="http://www.w3.org/2000/svg"><path fill-rule="evenodd" clip-rule="evenodd" d="M30.545,28.822c-1.165,7.217,0.33,14.85,6.5,19.041   C30.758,19.81,45.756,8.664,59.646,1c-16.18,23.046,16.896,23.644,18.777,50.13C80.028,73.71,64.507,91.317,46.639,99   c0.206-22.825-22.55-25.933-24.838-44.603C20.905,47.094,25.062,33.766,30.545,28.822z"></path></g></g><g id="SvgjsG2280" featureKey="K5GtsI-0" transform="matrix(4.21398619093755,0,0,4.21398619093755,72.06143101298356,2.206542872620865)" fill="#8d8a86"><path d="M9.7266 20 l-7.1777 0 q-0.576171875 0 -0.9765625 -0.4052734375 t-0.40039 -0.97168 t0.40039 -0.97168 t0.97656 -0.40527 l7.1777 0 q0.56640625 0 0.9716796875 0.4052734375 t0.40527 0.97168 t-0.40527 0.97168 t-0.97168 0.40527 z M9.7266 8.75 l-7.1777 0 q-0.576171875 0 -0.9765625 -0.400390625 t-0.40039 -0.97656 q0 -0.56640625 0.400390625 -0.9716796875 t0.97656 -0.40527 l7.1777 0 q0.56640625 0 0.9716796875 0.4052734375 t0.40527 0.97168 q0 0.576171875 -0.4052734375 0.9765625 t-0.97168 0.40039 z M9.7266 14.375 l-7.1777 0 q-0.576171875 0 -0.9765625 -0.400390625 t-0.40039 -0.97656 q0 -0.56640625 0.400390625 -0.9716796875 t0.97656 -0.40527 l7.1777 0 q0.56640625 0 0.9716796875 0.4052734375 t0.40527 0.97168 q0 0.576171875 -0.4052734375 0.9765625 t-0.97168 0.40039 z M21.084021874999998 20 q0.576171875 0 0.9765625 -0.4052734375 t0.40039 -0.97168 t-0.40039 -0.97168 t-0.97656 -0.40527 l-3.6719 0 q-0.52734375 0 -0.78125 -0.166015625 q-0.8203125 -0.546875 -0.8203125 -2.333984375 l0 -7.373 q0 -0.56640625 -0.4052734375 -0.9716796875 t-0.97168 -0.40527 q-0.576171875 0 -0.9765625 0.4052734375 t-0.40039 0.97168 l0 7.373 q0 2.431640625 1.171875 3.842773438 t3.1836 1.4111 l3.6719 0 z M31.08395625 20 q1.416015625 0 2.607421875 -0.595703125 t2.041 -1.7188 q1.4453125 -2.03125 1.4453125 -4.6875 q0 -2.646484375 -1.4453125 -4.6875 q-0.849609375 -1.123046875 -2.041015625 -1.71875 t-2.6074 -0.5957 l-5 0 q-0.576171875 0 -0.9765625 0.4052734375 t-0.40039 0.97168 l0 3.418 q0 0.576171875 0.400390625 0.9765625 t0.97656 0.40039 q0.56640625 0 0.9716796875 -0.400390625 t0.40527 -0.97656 l0 -2.041 l3.623 0 q1.796875 0 2.666015625 1.533203125 q0.68359375 1.2109375 0.68359375 2.71484375 q0 1.748046875 -0.908203125 3.046875 q-0.908203125 1.201171875 -2.44140625 1.201171875 l-5 0 q-0.576171875 0 -0.9765625 0.4052734375 t-0.40039 0.97168 t0.40039 0.97168 t0.97656 0.40527 l5 0 z M47.255896875 20 q0.576171875 0 0.9765625 -0.4052734375 t0.40039 -0.97168 t-0.40039 -0.97168 t-0.97656 -0.40527 l-3.6719 0 q-0.52734375 0 -0.78125 -0.166015625 q-0.8203125 -0.546875 -0.8203125 -2.333984375 l0 -7.373 q0 -0.56640625 -0.4052734375 -0.9716796875 t-0.97168 -0.40527 q-0.576171875 0 -0.9765625 0.4052734375 t-0.40039 0.97168 l0 7.373 q0 2.431640625 1.171875 3.842773438 t3.1836 1.4111 l3.6719 0 z M52.27543125 20 q0.56640625 0 0.9716796875 -0.4052734375 t0.40527 -0.97168 l0 -11.25 q0 -0.56640625 -0.4052734375 -0.9716796875 t-0.97168 -0.40527 t-0.97168 0.40527 t-0.40527 0.97168 l0 11.25 q0 0.56640625 0.4052734375 0.9716796875 t0.97168 0.40527 z M51.77733125 5.117000000000001 q-0.3515625 0 -0.64453125 -0.25390625 q-0.25390625 -0.283203125 -0.25390625 -0.64453125 t0.25391 -0.64453 l0.99609 -0.99609 q0.283203125 -0.25390625 0.634765625 -0.25390625 q0.361328125 0 0.64453125 0.25390625 q0.263671875 0.283203125 0.263671875 0.64453125 t-0.26367 0.63477 l-0.99609 0.99609 q-0.29296875 0.263671875 -0.634765625 0.263671875 z M65.38075 20 q-0.654296875 0 -1.123046875 -0.576171875 l-5.4883 -7.7344 l0 2.7832 q0 0.56640625 -0.400390625 0.9716796875 t-0.97656 0.40527 q-0.56640625 0 -0.9716796875 -0.4052734375 t-0.40527 -0.97168 l0 -7.1094 q0.009765625 -0.068359375 0.0146484375 -0.126953125 t0.014648 -0.097656 l0.0097656 -0.058594 q0.01953125 -0.09765625 0.05859375 -0.185546875 q0.009765625 -0.0390625 0.0146484375 -0.0537109375 t0.014648 -0.03418 l0.019531 -0.039063 l0.019531 -0.039063 l0.019531 -0.039063 t0.019531 -0.03418 l0.029297 -0.043945 q0.05859375 -0.087890625 0.126953125 -0.15625 l0.0097656 -0.0097656 t0.019531 -0.024414 t0.024414 -0.029297 t0.058594 -0.048828 t0.10254 -0.083008 l0.019531 -0.0097656 q0.048828125 -0.0390625 0.087890625 -0.05859375 t0.073242 -0.039063 t0.078125 -0.039063 t0.087891 -0.03418 l0.073242 -0.024414 t0.073242 -0.019531 t0.092773 -0.014648 l0.097656 -0.0097656 t0.10742 -0.014648 l0.3125 0.039063 q0.13671875 0.029296875 0.25390625 0.078125 l0.019531 0.0097656 l0.039063 0.019531 l0.039063 0.019531 l0.039063 0.019531 t0.03418 0.019531 l0.043945 0.029297 l0.10742 0.087891 q0.029296875 0.01953125 0.0390625 0.029296875 l0.019531 0.019531 t0.024414 0.019531 t0.029297 0.024414 t0.048828 0.058594 t0.083008 0.10254 l5.4883 7.7344 l0 -6.9336 q0 -0.56640625 0.4052734375 -0.9716796875 t0.97168 -0.40527 q0.576171875 0 0.9765625 0.4052734375 t0.40039 0.97168 l0 11.25 q0 0.44921875 -0.25390625 0.810546875 q-0.419921875 0.56640625 -1.123046875 0.56640625 z M57.39255 20 q-0.56640625 0 -0.9716796875 -0.4052734375 t-0.40527 -0.97168 t0.40527 -0.97168 t0.97168 -0.40527 q0.576171875 0 0.9765625 0.4052734375 t0.40039 0.97168 t-0.40039 0.97168 t-0.97656 0.40527 z M70.0878875 20 q-0.302734375 0 -0.576171875 -0.126953125 q-0.537109375 -0.25390625 -0.712890625 -0.78125 q-0.087890625 -0.234375 -0.087890625 -0.478515625 q0 -0.283203125 0.1171875 -0.56640625 l5.2051 -11.25 q0.439453125 -0.80078125 1.25 -0.80078125 q0.80078125 0 1.240234375 0.80078125 l3.7402 8.0566 q0.1171875 0.29296875 0.1171875 0.576171875 q0 0.859375 -0.80078125 1.25 q-0.29296875 0.13671875 -0.5859375 0.13671875 q-0.83984375 0 -1.240234375 -0.80078125 l-2.4707 -5.3613 l-3.9453 8.5449 q-0.185546875 0.380859375 -0.5224609375 0.5908203125 t-0.72754 0.20996 z M80.4786875 19.980469 q-0.576171875 0 -0.9765625 -0.4052734375 t-0.40039 -0.97168 q0 -0.576171875 0.400390625 -0.9765625 t0.97656 -0.40039 q0.56640625 0 0.9716796875 0.400390625 t0.40527 0.97656 q0 0.56640625 -0.4052734375 0.9716796875 t-0.97168 0.40527 z"></path></g>
			</g>
		</svg>
