
        <svg xmlns="http://www.w3.org/2000/svg" xmlns:xlink="http://www.w3.org/1999/xlink" version="1.1" width="3169.0140845070423"
        height="618.5801723762112" viewBox="0 0 3169.0140845070423 618.5801723762112">

			<g transform="scale(8.450704225352112) translate(10, 10)">
				<defs id="SvgjsDefs1802"></defs><g id="SvgjsG1803" featureKey="Q4qmbg-0" transform="matrix(3.2391566042602475,0,0,3.2391566042602475,4.99999845544977,-11.584478354019954)" fill="#8d8a86"><path d="M5.3 5.119999999999999 c4 0 5.32 1.3 5.32 4.34 l0 1.3 l-2.82 0 c-0.02 -1.22 -0.58 -1.72 -2.22 -1.72 c-1.68 0 -2.22 0.56 -2.22 1.82 l0 3.94 c0 1.24 0.56 1.9 2.22 1.9 c1.78 0 2.18 -0.58 2.22 -1.74 l-2.76 0 l0 -3.24 l5.58 0 l0 3.76 c0 3.04 -0.88 4.52 -5.32 4.52 c-4 0 -5.3 -1.54 -5.3 -4.52 l0 -6.02 c0 -2.98 1.26 -4.34 5.3 -4.34 z M22.316979166666666 10.06 l-1.6 0 l2.02 9.94 l-4.06 0 l-0.38 -1.84 l-3.54 0 l-0.32 1.84 l-3.24 0 l1.72 -9.94 l-0.98 0 l0 -4.94 l10.38 0 l0 4.94 z M15.476979166666666 13.9 l1.96 0 l-0.78 -3.84 l-0.5 0 z M29.57395833333333 13.059999999999999 l1.36 -7.94 l4.48 0 l0 14.88 l-2.98 0 l0 -10.2 l-1.84 9.06 l-2.02 0 l-1.84 -9.46 l0 10.6 l-3.42 0 l0 -14.88 l4.84 0 z M35.9909375 20 l0 -14.88 l8.66 0 l0 4.18 l-5.24 0 l0 1.84 l4.3 0 l0 2.98 l-4.3 0 l0 1.7 l5.24 0 l0 4.18 l-8.62 0 l-0.04 0 z M52.00791666666667 12.5 l0 -7.38 l2.98 0 l0 14.88 l-2.98 0 l0 -3.24 l-2.9 0 l0 3.24 l-3.88 0 l0 -14.88 l3.88 0 l0 7.38 l2.9 0 z M66.68489583333333 10.06 l-1.6 0 l2.02 9.94 l-4.06 0 l-0.38 -1.84 l-3.54 0 l-0.32 1.84 l-3.24 0 l1.72 -9.94 l-0.98 0 l0 -4.94 l10.38 0 l0 4.94 z M59.84489583333333 13.9 l1.96 0 l-0.78 -3.84 l-0.5 0 z M72.98187499999999 5.119999999999999 c4.44 0 5.32 1.48 5.32 4.52 l0 3.36 l-2.82 0 l0 -1.74 c0 -1.26 -0.36 -1.9 -2.22 -1.9 c-1.66 0 -2.22 0.66 -2.22 1.9 l0 3 c0 1.26 0.54 1.82 2.22 1.82 c1.64 0 2.2 -0.5 2.22 -1.72 l2.82 0 l0 1.3 c0 3.04 -1.32 4.34 -5.32 4.34 c-4.04 0 -5.3 -1.34 -5.3 -4.34 l0 -6.02 c0 -2.98 1.3 -4.52 5.3 -4.52 z M87.13885416666666 11.8 c1.2 0.44 1.66 1.24 1.66 2.52 l0.42 5.68 l-3.98 0 l-0.14 -4.06 c0 -1.64 -0.64 -2.34 -1.72 -2.34 c-0.3 0 -0.52 0.04 -0.72 0.16 l0 6.24 l-3.78 0 l0 -14.88 l3.78 0 l0 6.12 c0.16 0.1 0.38 0.16 0.62 0.16 c0.92 0 1.46 -0.6 1.66 -2.18 l0.42 -4.1 l3.7 0 l-0.46 4.86 c-0.14 1.4 -0.9 1.4 -1.46 1.82 z M89.79583333333332 20 l0 -14.88 l8.66 0 l0 4.18 l-5.24 0 l0 1.84 l4.3 0 l0 2.98 l-4.3 0 l0 1.7 l5.24 0 l0 4.18 l-8.62 0 l-0.04 0 z M104.31281249999999 15.74 c-0.08 -0.1 -0.18 -0.14 -0.28 -0.14 l-1.58 0 l0 3.66 l-3.42 0 l0 -14.14 l4.62 0 c3.68 0 4.4 0.88 4.4 2.68 l0 3.56 c0 1.56 -1.2 1.82 -2.12 2.08 c0.92 0.56 2.02 0.9 2.02 2.88 l-0.06 3.68 l-3.42 0 l0.04 -3.72 c0 -0.22 -0.06 -0.42 -0.2 -0.54 z M102.4528125 11.5 c0.18 0.06 0.4 0.08 0.68 0.08 c0.98 0 1.3 -0.32 1.3 -1.08 l0 -1.48 c0 -0.76 -0.22 -1.12 -1.3 -1.12 c-0.28 0 -0.5 0.02 -0.68 0.08 l0 3.52 z"></path></g>
			</g>
		</svg>
