
        <svg xmlns="http://www.w3.org/2000/svg" xmlns:xlink="http://www.w3.org/1999/xlink" version="1.1" width="3300"
        height="693.1155669625911" viewBox="0 0 3300 693.1155669625911">

			<g transform="scale(15) translate(10, 10)">
				<defs id="SvgjsDefs1706"></defs><g id="SvgjsG1707" featureKey="nameFeature-0" transform="matrix(0.9778993785468549,0,0,0.9778993785468549,-1.3690589900759687,-12.517109434126683)" fill="#8d8a86"><path d="M4.6 39.2 c-2 0 -3.2 -1.2 -3.2 -3.2 c0 -2.04 1.2 -3.24 3.32 -3.24 l0.24 0 l0 -10.96 l-0.2 0 c-2.12 0 -3.36 -1.2 -3.36 -3.24 c0 -2 1.2 -3.2 3.2 -3.2 l7.92 0 c2.72 0 3.8 0.8 4.6 3.48 l2.4 8.16 l2.4 -8.2 c0.8 -2.68 1.88 -3.44 4.6 -3.44 l8.32 0 c2 0 3.2 1.2 3.2 3.2 c0 2.04 -1.24 3.24 -3.36 3.24 l-0.2 0 l0 10.96 l0.2 0 c2.12 0 3.36 1.2 3.36 3.24 c0 2 -1.2 3.2 -3.2 3.2 l-7.32 0 c-2 0 -3.2 -1.2 -3.2 -3.2 c0 -1.92 1.08 -3.12 2.96 -3.16 l0 -11.28 l-0.2 0 c-0.68 0 -0.92 0.12 -1.36 1.4 l-3.2 9.72 c-0.76 2.2 -1.6 2.92 -3.2 2.92 s-2.44 -0.72 -3.2 -2.92 l-3.24 -9.72 c-0.44 -1.28 -0.68 -1.4 -1.36 -1.4 l-0.16 0 l0 11.28 c1.88 0.04 2.96 1.24 2.96 3.16 c0 2 -1.2 3.2 -3.2 3.2 l-6.52 0 z M47.599999999999994 39.6 c-4.36 0 -6.72 -2 -6.72 -5.56 c0 -3.48 2.28 -5.08 8.6 -5.64 c5.56 -0.48 5.84 -0.68 5.84 -2.12 c0 -1.4 -1.68 -1.72 -3.68 -1.72 c-1.64 0 -3.64 0.4 -5.08 1 c-1.04 0.44 -1.6 0.56 -2.24 0.56 c-1.48 0 -2.44 -1 -2.44 -2.6 c0 -2.6 3.44 -4.32 9.48 -4.32 c8.04 0 10.76 2.36 10.76 9.04 l0 5.2 c1.76 0.04 2.8 1.12 2.8 2.88 c0 1.8 -1.08 2.88 -2.88 2.88 l-3.32 0 c-2.08 0 -3.2 -1.08 -3.72 -3.56 c-1.92 2.8 -4.08 3.96 -7.4 3.96 z M50.879999999999995 35.12 c2.68 0 4.44 -1.48 4.44 -4.64 l0 -0.88 c-1 0.72 -1.2 0.8 -3.56 1 c-2.16 0.2 -3.68 0.64 -3.68 2.36 c0 1.56 1.16 2.16 2.8 2.16 z M70.2 39.2 c-1.8 0 -2.88 -1.08 -2.88 -2.88 c0 -1.76 1.04 -2.84 2.8 -2.88 l0 -8.08 c-1.76 -0.04 -2.8 -1.12 -2.8 -2.88 c0 -1.8 1.08 -2.88 2.88 -2.88 l3.32 0 c2.32 0 3.32 1.08 3.92 4.28 c1.52 -3.4 3.04 -4.68 5.72 -4.68 c2.2 0 3.36 1.16 3.36 3.28 c0 1.92 -1.24 3.12 -3.24 3.12 c-0.44 0 -0.76 -0.04 -1.36 -0.12 c-0.64 -0.08 -0.96 -0.08 -1.32 -0.08 c-2.44 0 -3.68 1.72 -3.68 4.6 l0 3.44 l0.28 0 c1.84 0 2.92 1.04 2.92 2.88 c0 1.8 -1.08 2.88 -2.88 2.88 l-7.04 0 z M91.84 39.6 c-1.88 0 -3 -1.12 -3 -3 l0 -1.56 c0 -1.64 0.96 -2.6 2.6 -2.6 c1.32 0 2.28 0.52 3.2 0.96 c1.32 0.64 3.56 1.72 6.16 1.72 c1.8 0 2.6 -0.56 2.6 -1.72 c0 -1.04 -0.8 -1.52 -2.64 -1.76 l-4.32 -0.6 c-4.96 -0.68 -7.04 -2.48 -7.04 -5.8 c0 -3.76 2.92 -6.04 7.96 -6.04 c2.52 0 4.4 0.56 6.24 1.64 c0.6 -1.12 1.48 -1.64 2.8 -1.64 c1.88 0 3 1.12 3 3 l0 1.08 c0 1.64 -0.96 2.6 -2.64 2.6 c-0.88 0 -1.68 -0.24 -3.32 -1 c-1.92 -0.92 -3 -1.2 -4.48 -1.2 c-1.8 0 -2.6 0.64 -2.6 1.8 c0 1 0.8 1.44 2.64 1.68 l4.32 0.6 c4.96 0.68 7.04 2.48 7.04 5.84 c0 3.8 -2.96 6 -8.36 6 c-2.92 0 -5.2 -0.6 -7.32 -1.8 c-0.52 1.2 -1.48 1.8 -2.84 1.8 z M115.92 39.2 c-1.8 0 -2.88 -1.08 -2.88 -2.88 c0 -1.76 1.04 -2.84 2.8 -2.88 l0 -14.88 c-1.76 -0.04 -2.8 -1.12 -2.8 -2.88 c0 -1.8 1.08 -2.88 2.88 -2.88 l3.32 0 c2.12 0 3.4 1.28 3.4 3.4 l0 8.12 c1 -2.08 2.92 -5.12 7.52 -5.12 c4.24 0 6.56 2.44 6.56 6.88 l0 7.36 c1.76 0.04 2.8 1.12 2.8 2.88 c0 1.8 -1.08 2.88 -2.88 2.88 l-6.28 0 c-1.8 0 -2.88 -1.08 -2.88 -2.88 c0 -1.64 0.92 -2.68 2.44 -2.84 l0 -4.92 c0 -2.24 -1.2 -3.6 -3.4 -3.6 c-2.56 0 -3.88 1.8 -3.88 4.8 l0 3.72 c1.52 0.16 2.44 1.2 2.44 2.84 c0 1.8 -1.08 2.88 -2.88 2.88 l-6.28 0 z M148.68 39.6 c-4.36 0 -6.72 -2 -6.72 -5.56 c0 -3.48 2.28 -5.08 8.6 -5.64 c5.56 -0.48 5.84 -0.68 5.84 -2.12 c0 -1.4 -1.68 -1.72 -3.68 -1.72 c-1.64 0 -3.64 0.4 -5.08 1 c-1.04 0.44 -1.6 0.56 -2.24 0.56 c-1.48 0 -2.44 -1 -2.44 -2.6 c0 -2.6 3.44 -4.32 9.48 -4.32 c8.04 0 10.76 2.36 10.76 9.04 l0 5.2 c1.76 0.04 2.8 1.12 2.8 2.88 c0 1.8 -1.08 2.88 -2.88 2.88 l-3.32 0 c-2.08 0 -3.2 -1.08 -3.72 -3.56 c-1.92 2.8 -4.08 3.96 -7.4 3.96 z M151.96 35.12 c2.68 0 4.44 -1.48 4.44 -4.64 l0 -0.88 c-1 0.72 -1.2 0.8 -3.56 1 c-2.16 0.2 -3.68 0.64 -3.68 2.36 c0 1.56 1.16 2.16 2.8 2.16 z M171.28 39.2 c-1.8 0 -2.88 -1.08 -2.88 -2.88 c0 -1.76 1.04 -2.84 2.8 -2.88 l0 -14.88 c-1.76 -0.04 -2.8 -1.12 -2.8 -2.88 c0 -1.8 1.08 -2.88 2.88 -2.88 l3.32 0 c2.12 0 3.4 1.28 3.4 3.4 l0 17.24 c1.76 0.04 2.8 1.12 2.8 2.88 c0 1.8 -1.08 2.88 -2.88 2.88 l-6.64 0 z M196.35999999999999 39.6 c-8.16 0 -12.76 -3.68 -12.76 -10.08 c0 -6.24 4.48 -10.32 11.36 -10.32 c6.52 0 10.96 3.44 10.96 8.4 c0 1.92 -0.64 2.64 -2.24 2.64 l-12.84 0 c0.16 2.6 2.48 4 6.04 4 c1.28 0 2.6 -0.32 4.2 -1 c0.92 -0.4 1.56 -0.56 2.2 -0.56 c1.48 0 2.44 1 2.44 2.6 c0 2.56 -3.44 4.32 -9.36 4.32 z M190.83999999999997 27.759999999999998 l8.6 0 c-0.08 -2.68 -1.92 -4.08 -4.32 -4.08 c-2.32 0 -4.16 1.4 -4.28 4.08 z"></path></g>
			</g>
		</svg>
