
        <svg xmlns="http://www.w3.org/2000/svg" xmlns:xlink="http://www.w3.org/1999/xlink" version="1.1" width="3159.8431921348433"
        height="724.8569752932898" viewBox="0 0 3159.8431921348433 724.8569752932898">

			<g transform="scale(7.992159606742156) translate(10, 10)">
				<defs id="SvgjsDefs1021"></defs><g id="SvgjsG1022" featureKey="nRdZyp-0" transform="matrix(1.021589042284944,0,0,1.021589042284944,-10.262883035559986,-15.731449833616182)" fill="#8d8a86"><g xmlns="http://www.w3.org/2000/svg"><path d="M70.947,51.604c0-2.5-2.034-4.533-4.534-4.533c-2.499,0-4.534,2.033-4.534,4.533s2.035,4.534,4.534,4.534   C68.913,56.139,70.947,54.104,70.947,51.604z"></path><path d="M89.953,50.001L75.849,25.57v0.534h-9.79l-8.434,8.433c0.695,1.16,1.102,2.511,1.102,3.958   c0,4.264-3.469,7.734-7.734,7.734c-4.264,0-7.734-3.471-7.734-7.734c0-4.265,3.47-7.734,7.734-7.734   c1.661,0,3.197,0.531,4.458,1.426l9.282-9.282h9.575l-4.332-7.505H44.934v13.484L30.046,43.771   c0.642,1.127,1.013,2.427,1.013,3.813c0,4.265-3.47,7.733-7.734,7.733c-4.265,0-7.734-3.469-7.734-7.733s3.469-7.734,7.734-7.734   c1.72,0,3.306,0.571,4.592,1.525l13.816-13.816V15.399h-11.71L10.046,50.001l10.593,18.346l18.343-18.342h19.866   c0.74-3.499,3.85-6.135,7.565-6.135c4.265,0,7.733,3.471,7.733,7.734c0,4.265-3.469,7.734-7.733,7.734   c-3.716,0-6.825-2.635-7.565-6.134H40.307L22.296,71.217l7.728,13.384h14.155v-6.6c-3.499-0.738-6.134-3.85-6.134-7.564   c0-4.266,3.469-7.734,7.734-7.734c3.716,0,6.826,2.635,7.565,6.134h25.547v0.325L89.953,50.001z"></path><path d="M18.792,47.584c0,2.5,2.034,4.534,4.534,4.534c2.5,0,4.534-2.034,4.534-4.534c0-2.499-2.034-4.534-4.534-4.534   C20.826,43.05,18.792,45.085,18.792,47.584z"></path><path d="M50.312,70.437c0-2.5-2.034-4.534-4.534-4.534s-4.534,2.034-4.534,4.534c0,2.499,2.034,4.533,4.534,4.533   S50.312,72.936,50.312,70.437z"></path><path d="M50.993,33.961c-2.5,0-4.534,2.034-4.534,4.534c0,2.499,2.034,4.533,4.534,4.533s4.534-2.034,4.534-4.533   C55.526,35.995,53.492,33.961,50.993,33.961z"></path><path d="M47.378,78.001v6.6h22.598l7.255-12.564H53.344C52.714,75.019,50.36,77.372,47.378,78.001z"></path></g></g><g id="SvgjsG1023" featureKey="Q4qmbg-0" transform="matrix(3.973038023682985,0,0,3.973038023682985,103.6626474538688,-14.772244656578124)" fill="#8d8a86"><path d="M3.9 10.12 l0 9.88 l-2.96 0 l0 -9.88 l2.96 0 z M3.98 7.279999999999999 c0 0.84 -0.68 1.5 -1.58 1.5 c-0.86 0 -1.56 -0.66 -1.56 -1.5 c0 -0.82 0.7 -1.46 1.56 -1.46 c0.9 0 1.58 0.64 1.58 1.46 z M9.103895833333333 15.8 c0 0.72 -0.02 1.92 1.08 1.92 c0.54 0 0.88 -0.22 1.26 -0.5 l0 2.44 c-0.46 0.26 -1.02 0.5 -1.62 0.5 c-2.54 0 -3.68 -1.08 -3.68 -4.36 l0 -3.24 l-1.1 0 l0 -2.44 l1.1 0 l0 -2.84 l2.96 0 l0 2.84 l2.34 0 l0 2.44 l-2.34 0 l0 3.24 z M16.827791666666666 15.8 c0 0.72 -0.02 1.92 1.08 1.92 c0.54 0 0.88 -0.22 1.26 -0.5 l0 2.44 c-0.46 0.26 -1.02 0.5 -1.62 0.5 c-2.54 0 -3.68 -1.08 -3.68 -4.36 l0 -3.24 l-1.1 0 l0 -2.44 l1.1 0 l0 -2.84 l2.96 0 l0 2.84 l2.34 0 l0 2.44 l-2.34 0 l0 3.24 z M27.5716875 10.26 l-0.4 2.22 c-0.74 -0.32 -0.88 -0.26 -1.22 -0.26 c-1.2 0 -1.9 0.64 -1.9 2.22 l0 5.56 l-2.96 0 l0 -9.88 l2.96 0 l0 0.88 c0.38 -0.68 1.42 -1.02 2.08 -1.02 c0.62 0 0.98 0.02 1.44 0.28 z M37.85558333333333 15.08 l0 0.66 l-7.04 0 c0 1.16 1.18 1.98 2.16 1.98 c0.96 0 1.84 -0.38 2.3 -1.22 l1.98 1.82 c-0.8 1.08 -2.02 1.84 -4.28 1.84 c-3.24 0 -5.22 -2.16 -5.22 -5.08 s1.92 -5.1 5.04 -5.1 s5.06 2.14 5.06 5.1 z M30.87558333333333 13.86 l3.88 0 c-0.16 -0.94 -0.84 -1.44 -1.96 -1.44 c-1.08 0 -1.74 0.58 -1.92 1.44 z M48.27947916666666 14.36 l0 5.64 l-2.96 0 l0 -5.64 c0 -1.5 -0.4 -2.16 -1.56 -2.16 c-1.2 0 -1.9 0.66 -1.9 2.16 l0 5.64 l-2.96 0 l0 -9.88 l2.96 0 l0 0.94 c0.76 -0.74 1.8 -1.08 2.66 -1.08 c2.78 0 3.76 1.34 3.76 4.38 z M49.32337499999999 15.08 c0 -2.92 1.92 -5.1 4.82 -5.1 c0.64 0 1.9 0.34 2.24 0.82 l0 -5.32 l2.98 0 l0 14.52 l-2.98 0 l0 -0.66 c-0.36 0.46 -1.38 0.82 -2.04 0.82 c-2.9 0 -5.02 -2.16 -5.02 -5.08 z M52.303374999999996 15.08 c0 1.56 1 2.84 2.24 2.84 c1.36 0 2.24 -1.52 2.24 -2.84 s-0.86 -2.86 -2.24 -2.86 c-1.24 0 -2.24 1.28 -2.24 2.86 z M63.387270833333325 13.24 c0 1.18 5 0.62 5 3.74 c0 2.04 -1.8 3.18 -4.04 3.18 c-1.42 0 -2.84 -0.7 -3.96 -1.82 l1.94 -1.94 c0.56 0.68 1.36 1.2 2.02 1.26 s1.22 -0.22 1.32 -0.52 c0.24 -0.76 -1.14 -0.8 -1.56 -0.92 c-1.58 -0.48 -3.42 -1.14 -3.42 -3.1 c0 -2.34 2.44 -3.14 3.66 -3.14 c1.4 0 2.82 0.64 3.96 1.8 l-1.92 1.92 c-0.52 -0.68 -1.42 -1.22 -2.04 -1.22 c-0.32 0 -0.96 0.12 -0.96 0.76 z"></path></g>
			</g>
		</svg>
