
        <svg xmlns="http://www.w3.org/2000/svg" xmlns:xlink="http://www.w3.org/1999/xlink" version="1.1" width="3203.3898305084745"
        height="966.1016949152543" viewBox="0 0 3203.3898305084745 966.1016949152543">

			<g transform="scale(10.169491525423728) translate(10, 10)">
				<defs id="SvgjsDefs1016"></defs><g id="SvgjsG1017" featureKey="symbolFeature-0" transform="matrix(0.8316700608930301,0,0,0.8316700608930301,-4.0834998720819975,-4.0834998720819975)" fill="#8d8a86"><polygon xmlns="http://www.w3.org/2000/svg" fill-rule="evenodd" clip-rule="evenodd" points="95.09,4.91 79.865,50 64.641,95.09 44.674,55.325 4.91,35.36 50,20.136   "></polygon></g><g id="SvgjsG1018" featureKey="nameFeature-0" transform="matrix(1.377410352520033,0,0,1.377410352520033,93.34710915329701,1.0853972980596112)" fill="#8d8a86"><path d="M15.36 14.32 c-6.76 0 -12.04 5.08 -12.04 11.96 s5.28 12.04 12.04 12.04 c4.8 0 8.04 -2.2 10.2 -5.8 l1.64 1.08 c-2.44 4.12 -6.28 6.72 -11.84 6.72 c-7.8 0 -14.16 -5.92 -14.16 -14.04 s6.36 -14 14.16 -14 c5.56 0 9.52 2.64 11.92 6.76 l-1.72 1.12 c-2.16 -3.64 -5.52 -5.84 -10.2 -5.84 z M39.64 21.56 c-4.8 0 -8.36 3.68 -8.36 8.44 c0 4.72 3.56 8.4 8.36 8.4 c4.72 0 8.36 -3.64 8.36 -8.4 c0 -4.8 -3.64 -8.44 -8.36 -8.44 z M47.879999999999995 40 l0 -3.96 c-1.64 2.48 -4.52 4.24 -8.36 4.24 c-5.72 0 -10.2 -4.48 -10.2 -10.32 c0 -5.8 4.48 -10.28 10.2 -10.28 c3.84 0 6.68 1.72 8.36 4.12 l0 -3.8 l1.96 0 l0 20 l-1.96 0 z M52.44 33.92 l2 0 c0.36 2.84 2.56 4.52 6.36 4.52 c3.68 0 5.6 -1.52 5.6 -3.92 c0 -6.08 -13.2 -1.48 -13.2 -9.32 c0 -3.28 2.76 -5.52 7.04 -5.52 c4.44 0 7.28 2.32 7.52 5.92 l-1.96 0 c-0.2 -2.08 -1.88 -4.08 -5.6 -4.08 c-3.16 0 -5 1.44 -5 3.6 c0 5.88 13.16 1.36 13.16 9.32 c0 3.4 -2.8 5.88 -7.6 5.88 c-4.84 0 -7.84 -2.2 -8.32 -6.4 z M75.08 20 l5.56 0 l0 1.76 l-5.56 0 l0 12.16 c0 3.36 2.2 4.2 4 4.2 l1.52 0 l0 1.88 l-1.56 0 c-2.72 0 -5.88 -1.52 -5.88 -6.08 l0 -12.16 l-3 0 l0 -1.76 l3 0 l0 -5.8 l1.92 0 l0 5.8 z M102.28 35.28 c-1.84 3.04 -4.76 5 -9.24 5 c-6.04 0 -10.4 -4.48 -10.4 -10.32 c0 -5.8 4.4 -10.28 10.24 -10.28 c5.96 0 10.12 4.56 10.12 9.68 c0 0.64 -0.04 1.08 -0.08 1.32 l-18.2 0 c0.32 4.88 4 7.68 8.32 7.68 c3.96 0 6.16 -1.56 7.72 -4.12 z M92.88 21.56 c-4.08 0 -7.68 2.84 -8.16 7.32 l16.24 0 c-0.4 -4.52 -3.96 -7.32 -8.08 -7.32 z M114.24 19.68 l0 2.16 c-3.84 0 -6.68 2.92 -6.68 7.28 l0 10.88 l-1.96 0 l0 -20 l1.96 0 l0 3.72 c0.76 -1.52 2.92 -4.04 6.68 -4.04 z M125.47999999999999 19.68 l0 2.16 c-3.84 0 -6.68 2.92 -6.68 7.28 l0 10.88 l-1.96 0 l0 -20 l1.96 0 l0 3.72 c0.76 -1.52 2.92 -4.04 6.68 -4.04 z M136.2 21.56 c-4.8 0 -8.36 3.68 -8.36 8.44 c0 4.72 3.56 8.4 8.36 8.4 c4.72 0 8.36 -3.64 8.36 -8.4 c0 -4.8 -3.64 -8.44 -8.36 -8.44 z M144.44 40 l0 -3.96 c-1.64 2.48 -4.52 4.24 -8.36 4.24 c-5.72 0 -10.2 -4.48 -10.2 -10.32 c0 -5.8 4.48 -10.28 10.2 -10.28 c3.84 0 6.68 1.72 8.36 4.12 l0 -3.8 l1.96 0 l0 20 l-1.96 0 z"></path></g>
			</g>
		</svg>
